<svg id="elp" xmlns="http://www.w3.org/2000/svg" viewBox="0 0 522.77 259.04"><defs><style>.cls-1{fill:red;stroke:red;}.cls-1,.cls-2{stroke-miterlimit:10;stroke-width:0.5px;}.cls-2{fill:aqua;stroke:aqua;}</style></defs><title>elp</title><path class="cls-1" d="M100.6,881.87c-1.59,0-2.4-1.18-2.44-3.54v-8.09h8.67a2.07,2.07,0,0,1,1.81.89,4.63,4.63,0,0,1,.63,2.68v1.65h-9.2v1.77a1.06,1.06,0,0,0,.32.83,1.34,1.34,0,0,0,.9.27h8v3.54Zm-.53-7.39h7.28v-1.63q0-.81-.75-.81h-6.53Z" transform="translate(-97.91 -863.03)"/><path class="cls-1" d="M111.59,863.28H114v18.53h-2.37Z" transform="translate(-97.91 -863.03)"/><path class="cls-1" d="M118.72,881.87c-1.59,0-2.4-1.18-2.44-3.54v-8.09H125a2.09,2.09,0,0,1,1.82.89,4.71,4.71,0,0,1,.62,2.68v1.65H118.2v1.77a1,1,0,0,0,.32.83,1.34,1.34,0,0,0,.9.27h8v3.54Zm-.52-7.39h7.28v-1.63c0-.54-.25-.81-.76-.81H118.2Z" transform="translate(-97.91 -863.03)"/><path class="cls-1" d="M129.71,870.24h8.64V872h-6.73v5.19a1.06,1.06,0,0,0,1.22,1.1h5.51v3.54h-6.2c-1.59,0-2.4-1.18-2.44-3.54Z" transform="translate(-97.91 -863.03)"/><path class="cls-1" d="M143.11,881.87c-1.59,0-2.4-1.18-2.44-3.54V865.66h1.92v4.58h3l-.92,1.8h-2.06v5.19a1,1,0,0,0,1.21,1.1h1.77v3.54Z" transform="translate(-97.91 -863.03)"/><path class="cls-1" d="M147.89,873.81q0-3.57,2.44-3.57h2.46v3.57H151c-.79,0-1.19.36-1.21,1.07v7h-1.92Z" transform="translate(-97.91 -863.03)"/><path class="cls-1" d="M157.55,881.87c-1.59,0-2.4-1.18-2.44-3.54v-8.09h8.67q2.39,0,2.44,3.57v8.06ZM157,872v5.19a1.06,1.06,0,0,0,1.22,1.1h6.06v-5.48c0-.54-.25-.81-.76-.81Z" transform="translate(-97.91 -863.03)"/><path class="cls-1" d="M176.78,881.87c-1.59,0-2.4-1.18-2.44-3.54V865.66h1.91v4.58h3l-.93,1.8h-2.06v5.19a1.06,1.06,0,0,0,1.22,1.1h1.77v3.54Z" transform="translate(-97.91 -863.03)"/><path class="cls-1" d="M181.56,863.28h1.92v7h5.82q2.38,0,2.44,3.57v8.06H188.9v-9c0-.54-.25-.81-.76-.81h-4.66v9.77h-1.92Z" transform="translate(-97.91 -863.03)"/><path class="cls-1" d="M194.06,873.81q0-3.57,2.44-3.57H199v3.57h-1.77c-.79,0-1.2.36-1.22,1.07v7h-1.91Z" transform="translate(-97.91 -863.03)"/><path class="cls-1" d="M201.28,872v-1.8H210q2.38,0,2.44,3.57v8.06h-8.67a2.08,2.08,0,0,1-1.82-.88,4.69,4.69,0,0,1-.62-2.66v-3.48h9.19v-2q0-.81-.75-.81Zm9.19,6.29V875.9h-7.28v1.33a1.06,1.06,0,0,0,.32.83,1.38,1.38,0,0,0,.9.27Z" transform="translate(-97.91 -863.03)"/><path class="cls-1" d="M216.62,874.74h9.19v3.59a4.61,4.61,0,0,1-.62,2.66,2.08,2.08,0,0,1-1.81.88h-8.67v-3.54h8a1.34,1.34,0,0,0,.9-.27,1.06,1.06,0,0,0,.32-.83v-1h-9.16l0-2.43q0-3.57,2.43-3.57h8.67V872h-8.43c-.51,0-.76.27-.76.81Z" transform="translate(-97.91 -863.03)"/><path class="cls-1" d="M228.13,863.28h1.92v7h5.83q2.37,0,2.43,3.57v8.06h-2.84v-9q0-.81-.75-.81h-4.67v9.77h-1.92Z" transform="translate(-97.91 -863.03)"/><path class="cls-1" d="M257.54,881.87h-9.19v4.64h-1.92V870.24h8.67q2.39,0,2.44,3.57Zm-1.91-3.54v-5.48c0-.54-.26-.81-.76-.81h-6.52v6.29Z" transform="translate(-97.91 -863.03)"/><path class="cls-1" d="M262.3,881.87c-1.59,0-2.4-1.18-2.44-3.54v-8.09h8.67q2.39,0,2.44,3.57v8.06Zm-.53-9.83v5.19a1.06,1.06,0,0,0,1.22,1.1h6.06v-5.48q0-.81-.75-.81Z" transform="translate(-97.91 -863.03)"/><path class="cls-1" d="M284.39,881.87H275.2v4.64h-1.91V870.24H282q2.37,0,2.43,3.57Zm-1.91-3.54v-5.48q0-.81-.75-.81H275.2v6.29Z" transform="translate(-97.91 -863.03)"/><path class="cls-1" d="M107.37,905.87q-2.62,0-2.69-3.9V893h9.57a2.3,2.3,0,0,1,2,1,5.18,5.18,0,0,1,.69,3v1.83H106.79v2a1.14,1.14,0,0,0,.35.91,1.46,1.46,0,0,0,1,.31h8.8v3.9Zm-.58-8.16h8v-1.79c0-.6-.27-.9-.83-.9h-7.2Z" transform="translate(-97.91 -863.03)"/><path class="cls-1" d="M119.5,885.36h2.62v20.45H119.5Z" transform="translate(-97.91 -863.03)"/><path class="cls-1" d="M127.37,905.87q-2.62,0-2.69-3.9V893h9.57a2.3,2.3,0,0,1,2,1,5.18,5.18,0,0,1,.69,3v1.83H126.79v2a1.14,1.14,0,0,0,.35.91,1.46,1.46,0,0,0,1,.31h8.8v3.9Zm-.58-8.16h8v-1.79c0-.6-.27-.9-.83-.9h-7.2Z" transform="translate(-97.91 -863.03)"/><path class="cls-1" d="M139.5,893H149v2h-7.42v5.73A1.17,1.17,0,0,0,143,902H149v3.9h-6.85q-2.62,0-2.68-3.9Z" transform="translate(-97.91 -863.03)"/><path class="cls-1" d="M154.28,905.87q-2.62,0-2.69-3.9V888h2.11V893H157l-1,2H153.7v5.73a1.18,1.18,0,0,0,1.35,1.22H157v3.9Z" transform="translate(-97.91 -863.03)"/><path class="cls-1" d="M159.56,897q0-3.93,2.69-3.93H165V897H163c-.88,0-1.33.4-1.35,1.19v7.71h-2.11Z" transform="translate(-97.91 -863.03)"/><path class="cls-1" d="M170.21,905.87c-1.74,0-2.64-1.3-2.68-3.9V893h9.56q2.63,0,2.69,3.93v8.9ZM169.64,895v5.73A1.17,1.17,0,0,0,171,902h6.69v-6.05c0-.6-.28-.9-.83-.9Z" transform="translate(-97.91 -863.03)"/><path class="cls-1" d="M191.43,905.87c-1.75,0-2.64-1.3-2.69-3.9V888h2.11V893h3.3l-1,2h-2.28v5.73A1.18,1.18,0,0,0,192.2,902h2v3.9Z" transform="translate(-97.91 -863.03)"/><path class="cls-1" d="M196.71,885.36h2.11V893h6.44c1.74,0,2.64,1.31,2.68,3.93v8.9h-3.13v-10c0-.6-.28-.9-.83-.9h-5.16v10.79h-2.11Z" transform="translate(-97.91 -863.03)"/><path class="cls-1" d="M210.5,897q0-3.93,2.69-3.93h2.72V897H214c-.88,0-1.32.4-1.35,1.19v7.71H210.5Z" transform="translate(-97.91 -863.03)"/><path class="cls-1" d="M218.47,895v-2H228c1.75,0,2.64,1.31,2.69,3.93v8.9h-9.57a2.27,2.27,0,0,1-2-1,5.05,5.05,0,0,1-.69-2.92v-3.84h10.14v-2.21c0-.6-.27-.9-.83-.9Zm10.14,7v-2.69h-8v1.47a1.11,1.11,0,0,0,.36.91,1.42,1.42,0,0,0,1,.31Z" transform="translate(-97.91 -863.03)"/><path class="cls-1" d="M235.4,898h10.14v4a5.05,5.05,0,0,1-.69,2.92,2.26,2.26,0,0,1-2,1h-9.56V902h8.8a1.45,1.45,0,0,0,1-.31,1.14,1.14,0,0,0,.35-.91v-1.09H233.32l0-2.69q0-3.93,2.68-3.93h9.57v2h-9.31c-.55,0-.83.3-.83.9Z" transform="translate(-97.91 -863.03)"/><path class="cls-1" d="M248.1,885.36h2.11V893h6.44q2.63,0,2.68,3.93v8.9H256.2v-10c0-.6-.28-.9-.83-.9h-5.16v10.79H248.1Z" transform="translate(-97.91 -863.03)"/><path class="cls-1" d="M280.55,905.87H270.41V911h-2.12V893h9.57q2.63,0,2.69,3.93Zm-2.11-3.9v-6.05c0-.6-.28-.9-.83-.9h-7.2v7Z" transform="translate(-97.91 -863.03)"/><path class="cls-1" d="M285.8,905.87q-2.62,0-2.69-3.9V893h9.57c1.75,0,2.64,1.31,2.69,3.93v8.9ZM285.22,895v5.73a1.18,1.18,0,0,0,1.35,1.22h6.68v-6.05c0-.6-.27-.9-.83-.9Z" transform="translate(-97.91 -863.03)"/><path class="cls-1" d="M310.18,905.87H300V911h-2.11V893h9.56q2.63,0,2.69,3.93Zm-2.11-3.9v-6.05c0-.6-.28-.9-.83-.9H300v7Z" transform="translate(-97.91 -863.03)"/><path class="cls-1" d="M115.86,931.87q-2.94,0-3-4.39V917.43H123.6a2.57,2.57,0,0,1,2.25,1.1,5.81,5.81,0,0,1,.78,3.33v2H115.22v2.2a1.3,1.3,0,0,0,.39,1,1.72,1.72,0,0,0,1.12.34h9.9v4.39Zm-.64-9.18h9v-2c0-.67-.31-1-.93-1h-8.1Z" transform="translate(-97.91 -863.03)"/><path class="cls-1" d="M129.51,908.79h3v23h-3Z" transform="translate(-97.91 -863.03)"/><path class="cls-1" d="M138.36,931.87q-2.94,0-3-4.39V917.43H146.1a2.57,2.57,0,0,1,2.25,1.1,5.81,5.81,0,0,1,.78,3.33v2H137.72v2.2a1.3,1.3,0,0,0,.39,1,1.7,1.7,0,0,0,1.12.34h9.9v4.39Zm-.64-9.18h9v-2c0-.67-.31-1-.94-1h-8.09Z" transform="translate(-97.91 -863.03)"/><path class="cls-1" d="M152,917.43h10.72v2.24h-8.35v6.44a1.33,1.33,0,0,0,1.52,1.37h6.83v4.39H155c-2,0-3-1.46-3-4.39Z" transform="translate(-97.91 -863.03)"/><path class="cls-1" d="M168.64,931.87q-3,0-3-4.39V911.75H168v5.68h3.71l-1.15,2.24H168v6.44a1.32,1.32,0,0,0,1.51,1.37h2.2v4.39Z" transform="translate(-97.91 -863.03)"/><path class="cls-1" d="M174.58,921.86q0-4.43,3-4.43h3.06v4.43h-2.19c-1,0-1.49.45-1.52,1.33v8.68h-2.37Z" transform="translate(-97.91 -863.03)"/><path class="cls-1" d="M186.57,931.87q-3,0-3-4.39V917.43h10.77q2.94,0,3,4.43v10Zm-.65-12.2v6.44a1.32,1.32,0,0,0,1.51,1.37H195v-6.81c0-.67-.31-1-.93-1Z" transform="translate(-97.91 -863.03)"/><path class="cls-1" d="M210.43,931.87q-2.94,0-3-4.39V911.75h2.38v5.68h3.7l-1.15,2.24h-2.55v6.44a1.31,1.31,0,0,0,1.51,1.37h2.19v4.39Z" transform="translate(-97.91 -863.03)"/><path class="cls-1" d="M216.37,908.79h2.38v8.64H226q2.94,0,3,4.43v10h-3.53v-11.2c0-.67-.31-1-.93-1h-5.8V931.8h-2.38Z" transform="translate(-97.91 -863.03)"/><path class="cls-1" d="M231.89,921.86q0-4.43,3-4.43H238v4.43h-2.19c-1,0-1.49.45-1.51,1.33v8.68h-2.38Z" transform="translate(-97.91 -863.03)"/><path class="cls-1" d="M240.85,919.67v-2.24h10.77c2,0,3,1.48,3,4.43v10H243.88a2.57,2.57,0,0,1-2.25-1.1,5.68,5.68,0,0,1-.78-3.29v-4.32h11.42v-2.49c0-.67-.32-1-.94-1Zm11.42,7.81v-3h-9v1.66a1.27,1.27,0,0,0,.4,1,1.67,1.67,0,0,0,1.11.34Z" transform="translate(-97.91 -863.03)"/><path class="cls-1" d="M259.9,923h11.41v4.47a5.77,5.77,0,0,1-.77,3.29,2.6,2.6,0,0,1-2.25,1.1H257.52v-4.39h9.9a1.72,1.72,0,0,0,1.12-.34,1.3,1.3,0,0,0,.39-1v-1.22H257.56l0-3c0-3,1-4.43,3-4.43h10.76v2.24H260.83c-.62,0-.93.33-.93,1Z" transform="translate(-97.91 -863.03)"/><path class="cls-1" d="M274.19,908.79h2.38v8.64h7.23q3,0,3,4.43v10H283.3v-11.2c0-.67-.32-1-.94-1h-5.79V931.8h-2.38Z" transform="translate(-97.91 -863.03)"/><path class="cls-1" d="M310.69,931.87H299.28v5.76h-2.37v-20.2h10.76q3,0,3,4.43Zm-2.37-4.39v-6.81c0-.67-.31-1-.94-1h-8.1v7.81Z" transform="translate(-97.91 -863.03)"/><path class="cls-1" d="M316.6,931.87q-3,0-3-4.39V917.43h10.77c2,0,3,1.48,3,4.43v10Zm-.65-12.2v6.44a1.32,1.32,0,0,0,1.51,1.37H325v-6.81c0-.67-.31-1-.93-1Z" transform="translate(-97.91 -863.03)"/><path class="cls-1" d="M344,931.87H332.62v5.76h-2.38v-20.2H341q2.94,0,3,4.43Zm-2.38-4.39v-6.81c0-.67-.31-1-.93-1h-8.1v7.81Z" transform="translate(-97.91 -863.03)"/><path class="cls-1" d="M126,960.87q-3.28,0-3.36-4.88V944.83h12a2.88,2.88,0,0,1,2.5,1.22,6.48,6.48,0,0,1,.86,3.7V952H125.24v2.44a1.43,1.43,0,0,0,.44,1.14,1.86,1.86,0,0,0,1.24.38h11v4.88Zm-.72-10.2h10v-2.24c0-.75-.35-1.12-1-1.12h-9Z" transform="translate(-97.91 -863.03)"/><path class="cls-1" d="M141.12,935.23h3.28v25.56h-3.28Z" transform="translate(-97.91 -863.03)"/><path class="cls-1" d="M151,960.87q-3.28,0-3.36-4.88V944.83h12a2.89,2.89,0,0,1,2.5,1.22,6.48,6.48,0,0,1,.86,3.7V952H150.24v2.44a1.43,1.43,0,0,0,.44,1.14,1.86,1.86,0,0,0,1.24.38h11v4.88Zm-.72-10.2h10v-2.24c0-.75-.35-1.12-1-1.12h-9Z" transform="translate(-97.91 -863.03)"/><path class="cls-1" d="M166.12,944.83H178v2.48h-9.28v7.16a1.46,1.46,0,0,0,1.68,1.52H178v4.88h-8.56q-3.28,0-3.36-4.88Z" transform="translate(-97.91 -863.03)"/><path class="cls-1" d="M184.6,960.87q-3.28,0-3.36-4.88V938.51h2.64v6.32H188l-1.28,2.48h-2.84v7.16a1.46,1.46,0,0,0,1.68,1.52H188v4.88Z" transform="translate(-97.91 -863.03)"/><path class="cls-1" d="M191.2,949.75q0-4.92,3.36-4.92H198v4.92h-2.44c-1.1,0-1.66.49-1.68,1.48v9.64H191.2Z" transform="translate(-97.91 -863.03)"/><path class="cls-1" d="M204.52,960.87q-3.28,0-3.36-4.88V944.83h12q3.27,0,3.36,4.92v11.12Zm-.72-13.56v7.16a1.46,1.46,0,0,0,1.68,1.52h8.36v-7.56c0-.75-.35-1.12-1-1.12Z" transform="translate(-97.91 -863.03)"/><path class="cls-1" d="M231,960.87q-3.28,0-3.36-4.88V938.51h2.64v6.32h4.12l-1.28,2.48h-2.84v7.16A1.46,1.46,0,0,0,232,956h2.44v4.88Z" transform="translate(-97.91 -863.03)"/><path class="cls-1" d="M237.64,935.23h2.64v9.6h8q3.27,0,3.36,4.92v11.12h-3.92V948.43c0-.75-.35-1.12-1-1.12h-6.44v13.48h-2.64Z" transform="translate(-97.91 -863.03)"/><path class="cls-1" d="M254.88,949.75q0-4.92,3.36-4.92h3.4v4.92H259.2c-1.1,0-1.66.49-1.68,1.48v9.64h-2.64Z" transform="translate(-97.91 -863.03)"/><path class="cls-1" d="M264.84,947.31v-2.48h12q3.27,0,3.36,4.92v11.12h-12a2.86,2.86,0,0,1-2.5-1.22,6.3,6.3,0,0,1-.86-3.66v-4.8h12.68v-2.76c0-.75-.35-1.12-1-1.12ZM277.52,956v-3.36h-10v1.84a1.39,1.39,0,0,0,.44,1.14,1.84,1.84,0,0,0,1.24.38Z" transform="translate(-97.91 -863.03)"/><path class="cls-1" d="M286,951h12.68v5a6.38,6.38,0,0,1-.86,3.66,2.89,2.89,0,0,1-2.5,1.22h-12V956h11a1.87,1.87,0,0,0,1.24-.38,1.43,1.43,0,0,0,.44-1.14v-1.36H283.4l0-3.36q0-4.92,3.36-4.92h12v2.48H287c-.7,0-1,.37-1,1.12Z" transform="translate(-97.91 -863.03)"/><path class="cls-1" d="M301.88,935.23h2.64v9.6h8q3.27,0,3.36,4.92v11.12H312V948.43c0-.75-.35-1.12-1-1.12h-6.44v13.48h-2.64Z" transform="translate(-97.91 -863.03)"/><path class="cls-1" d="M342.44,960.87H329.76v6.4h-2.64V944.83h12q3.27,0,3.36,4.92ZM339.8,956v-7.56c0-.75-.35-1.12-1-1.12h-9V956Z" transform="translate(-97.91 -863.03)"/><path class="cls-1" d="M349,960.87q-3.28,0-3.36-4.88V944.83h12q3.27,0,3.36,4.92v11.12Zm-.72-13.56v7.16A1.46,1.46,0,0,0,350,956h8.36v-7.56c0-.75-.35-1.12-1-1.12Z" transform="translate(-97.91 -863.03)"/><path class="cls-1" d="M379.48,960.87H366.8v6.4h-2.65V944.83h12q3.28,0,3.37,4.92ZM376.84,956v-7.56c0-.75-.35-1.12-1-1.12h-9V956Z" transform="translate(-97.91 -863.03)"/><path class="cls-2" d="M136.73,991.87q-3.53,0-3.61-5.25v-12H146a3.05,3.05,0,0,1,2.68,1.31,6.9,6.9,0,0,1,.93,4v2.45H136V985a1.53,1.53,0,0,0,.47,1.23,2,2,0,0,0,1.33.4h11.83v5.25Zm-.77-11h10.79V978.5c0-.8-.37-1.21-1.12-1.21H136Z" transform="translate(-97.91 -863.03)"/><path class="cls-2" d="M153,964.31h3.52v27.47H153Z" transform="translate(-97.91 -863.03)"/><path class="cls-2" d="M163.6,991.87q-3.53,0-3.61-5.25v-12h12.86a3.08,3.08,0,0,1,2.69,1.31,7,7,0,0,1,.92,4v2.45H162.83V985a1.56,1.56,0,0,0,.47,1.23,2,2,0,0,0,1.34.4h11.82v5.25Zm-.77-11h10.79V978.5c0-.8-.37-1.21-1.11-1.21h-9.68Z" transform="translate(-97.91 -863.03)"/><path class="cls-2" d="M179.9,974.63h12.82v2.66h-10V985a1.57,1.57,0,0,0,1.81,1.63h8.17v5.25h-9.21q-3.52,0-3.61-5.25Z" transform="translate(-97.91 -863.03)"/><path class="cls-2" d="M199.77,991.87c-2.35,0-3.56-1.75-3.61-5.25V967.83H199v6.8h4.43l-1.37,2.66H199V985a1.57,1.57,0,0,0,1.81,1.63h2.62v5.25Z" transform="translate(-97.91 -863.03)"/><path class="cls-2" d="M206.86,979.92q0-5.29,3.62-5.29h3.65v5.29h-2.62c-1.18,0-1.78.53-1.81,1.59v10.36h-2.84Z" transform="translate(-97.91 -863.03)"/><path class="cls-2" d="M221.18,991.87q-3.52,0-3.61-5.25v-12h12.86q3.52,0,3.61,5.29v12Zm-.77-14.58V985a1.57,1.57,0,0,0,1.8,1.63h9V978.5c0-.8-.37-1.21-1.12-1.21Z" transform="translate(-97.91 -863.03)"/><path class="cls-2" d="M249.69,991.87q-3.52,0-3.61-5.25V967.83h2.84v6.8h4.43L252,977.29h-3.05V985a1.56,1.56,0,0,0,1.8,1.63h2.63v5.25Z" transform="translate(-97.91 -863.03)"/><path class="cls-2" d="M256.79,964.31h2.83v10.32h8.65q3.53,0,3.61,5.29v12h-4.22V978.5c0-.8-.37-1.21-1.11-1.21h-6.93v14.49h-2.83Z" transform="translate(-97.91 -863.03)"/><path class="cls-2" d="M275.32,979.92q0-5.29,3.61-5.29h3.66v5.29H280q-1.75,0-1.8,1.59v10.36h-2.84Z" transform="translate(-97.91 -863.03)"/><path class="cls-2" d="M286,977.29v-2.66h12.85q3.53,0,3.62,5.29v12H289.64a3.09,3.09,0,0,1-2.69-1.31,6.82,6.82,0,0,1-.92-3.94v-5.16h13.63v-3c0-.8-.38-1.21-1.12-1.21Zm13.63,9.33V983h-10.8v2a1.53,1.53,0,0,0,.48,1.23,2,2,0,0,0,1.33.4Z" transform="translate(-97.91 -863.03)"/><path class="cls-2" d="M308.77,981.29H322.4v5.33a6.82,6.82,0,0,1-.92,3.94,3.09,3.09,0,0,1-2.69,1.31H305.94v-5.25h11.82a2,2,0,0,0,1.33-.4,1.53,1.53,0,0,0,.48-1.23v-1.46H306l0-3.61c0-3.53,1.23-5.29,3.61-5.29H322.4v2.66H309.89c-.74,0-1.12.41-1.12,1.21Z" transform="translate(-97.91 -863.03)"/><path class="cls-2" d="M325.84,964.31h2.84v10.32h8.65q3.53,0,3.61,5.29v12h-4.22V978.5c0-.8-.37-1.21-1.11-1.21h-6.93v14.49h-2.84Z" transform="translate(-97.91 -863.03)"/><path class="cls-2" d="M369.45,991.87H355.81v6.88H353V974.63h12.85q3.53,0,3.62,5.29Zm-2.84-5.25V978.5c0-.8-.37-1.21-1.12-1.21h-9.68v9.33Z" transform="translate(-97.91 -863.03)"/><path class="cls-2" d="M376.5,991.87c-2.35,0-3.56-1.75-3.61-5.25v-12h12.85q3.52,0,3.62,5.29v12Zm-.78-14.58V985a1.57,1.57,0,0,0,1.81,1.63h9V978.5c0-.8-.37-1.21-1.12-1.21Z" transform="translate(-97.91 -863.03)"/><path class="cls-2" d="M409.27,991.87H395.63v6.88H392.8V974.63h12.85q3.53,0,3.62,5.29Zm-2.84-5.25V978.5c0-.8-.38-1.21-1.12-1.21h-9.68v9.33Z" transform="translate(-97.91 -863.03)"/><text x="-97.91" y="-863.03"/></svg>