<svg id="Layer_2" data-name="Layer 2" xmlns="http://www.w3.org/2000/svg" viewBox="0 0 307.28 135.47"><defs><style>.cls-1{fill:red;}.cls-2{fill:aqua;}</style></defs><title>gfw</title><path class="cls-1" d="M236.88,770.49c-1.59,0-2.4-1.18-2.44-3.53v-8.09h8.68a2,2,0,0,1,1.85.88,4.91,4.91,0,0,1,.58,2.68v9.17c0,2.35-.85,3.53-2.43,3.53h-5v-2.72h4.32c.68,0,1.08-.39,1.22-1.16v-.76Zm-.52-9.83v5.19a1.06,1.06,0,0,0,1.22,1.11h6.06v-5.48c0-.55-.25-.82-.76-.82Z" transform="translate(-234.44 -751.91)"/><path class="cls-1" d="M250.37,770.49c-1.59,0-2.4-1.18-2.44-3.53v-8.09h8.67a2.07,2.07,0,0,1,1.81.88,4.63,4.63,0,0,1,.63,2.68v1.65h-9.2v1.77a1,1,0,0,0,.32.83,1.35,1.35,0,0,0,.9.28h8v3.53Zm-.53-7.39h7.28v-1.62c0-.55-.25-.82-.75-.82h-6.53Z" transform="translate(-234.44 -751.91)"/><path class="cls-1" d="M261.36,758.87h7.74c1.58,0,2.4,1.18,2.43,3.56v8.06h-2.84v-9c0-.55-.25-.82-.75-.82h-4.67v9.78h-1.91Z" transform="translate(-234.44 -751.91)"/><path class="cls-1" d="M276.29,770.49c-1.58,0-2.4-1.18-2.44-3.53v-8.09h9.2v-7H285v18.58Zm-.52-4.64A1.06,1.06,0,0,0,277,767h6.06v-6.3h-7.28Z" transform="translate(-234.44 -751.91)"/><path class="cls-1" d="M289.72,770.49c-1.59,0-2.4-1.18-2.44-3.53v-8.09H296a2.08,2.08,0,0,1,1.82.88,4.71,4.71,0,0,1,.62,2.68v1.65H289.2v1.77a1,1,0,0,0,.31.83,1.38,1.38,0,0,0,.9.28h8v3.53Zm-.52-7.39h7.27v-1.62c0-.55-.25-.82-.75-.82H289.2Z" transform="translate(-234.44 -751.91)"/><path class="cls-1" d="M300.71,762.43c0-2.38.83-3.56,2.43-3.56h2.47v3.56h-1.77c-.79,0-1.2.36-1.22,1.08v7h-1.91Z" transform="translate(-234.44 -751.91)"/><path class="cls-1" d="M313.73,755.47c0-2.38.83-3.56,2.44-3.56h2.46v3.56h-1.77c-.79,0-1.2.36-1.22,1.07v2.33h2.84l-.92,1.79h-1.92v9.83h-1.91Z" transform="translate(-234.44 -751.91)"/><path class="cls-1" d="M323.39,770.49c-1.59,0-2.4-1.18-2.44-3.53v-8.09h1.91v7a1.07,1.07,0,0,0,1.22,1.11h5.6v-8.09h1.91v11.62Z" transform="translate(-234.44 -751.91)"/><path class="cls-1" d="M333.91,758.87h8.64v1.79h-6.72v5.19A1.06,1.06,0,0,0,337,767h5.51v3.53h-6.2c-1.59,0-2.4-1.18-2.44-3.53Z" transform="translate(-234.44 -751.91)"/><path class="cls-1" d="M344.87,770.49V751.91h2.38V764l4.64-5.16h1.51l-4.26,4.87,5.1,6.75h-2.93l-4.06-5.62v5.62Z" transform="translate(-234.44 -751.91)"/><path class="cls-1" d="M368.39,770.49v-4.93l-3.68,4.18a2,2,0,0,1-1.54.75h-.81V758.87H364v8l4.38-4.49v-3.48h1.66v8l7.33-8h3.25l-9.89,10.87a2,2,0,0,1-1.53.75Z" transform="translate(-234.44 -751.91)"/><path class="cls-1" d="M381.79,760.66v-1.79h8.67c1.59,0,2.4,1.18,2.44,3.56v8.06h-8.67a2.06,2.06,0,0,1-1.81-.88,4.56,4.56,0,0,1-.63-2.65v-3.48H391v-2c0-.55-.25-.82-.75-.82ZM391,767v-2.44h-7.27v1.33a1,1,0,0,0,.31.83,1.38,1.38,0,0,0,.9.28Z" transform="translate(-234.44 -751.91)"/><path class="cls-1" d="M395.22,770.49V758.87h1.65v8l7.34-8h3.25l-9.89,10.87a2,2,0,0,1-1.54.75Z" transform="translate(-234.44 -751.91)"/><path class="cls-1" d="M411.05,770.49c-1.58,0-2.4-1.18-2.43-3.53v-8.09h8.67a2.08,2.08,0,0,1,1.81.88,4.63,4.63,0,0,1,.62,2.68v1.65h-9.19v1.77a1,1,0,0,0,.32.83,1.35,1.35,0,0,0,.9.28h8v3.53Zm-.52-7.39h7.28v-1.62c0-.55-.25-.82-.75-.82h-6.53Z" transform="translate(-234.44 -751.91)"/><path class="cls-1" d="M243.65,794.49c-1.75,0-2.64-1.3-2.69-3.9v-8.93h9.57a2.28,2.28,0,0,1,2.05,1,5.44,5.44,0,0,1,.64,3v10.11q-.06,3.9-2.69,3.9H245v-3h4.76c.75,0,1.2-.43,1.35-1.28v-.84Zm-.57-10.84v5.72a1.17,1.17,0,0,0,1.34,1.22h6.69v-6.05c0-.59-.28-.89-.83-.89Z" transform="translate(-234.44 -751.91)"/><path class="cls-1" d="M258.53,794.49c-1.75,0-2.64-1.3-2.69-3.9v-8.93h9.57a2.29,2.29,0,0,1,2,1,5.15,5.15,0,0,1,.69,3v1.82H258v2a1.14,1.14,0,0,0,.35.92,1.46,1.46,0,0,0,1,.3h8.8v3.9Zm-.57-8.16h8v-1.79c0-.59-.28-.89-.83-.89H258Z" transform="translate(-234.44 -751.91)"/><path class="cls-1" d="M270.66,781.66h8.54q2.63,0,2.69,3.94v8.89h-3.13v-10c0-.59-.28-.89-.84-.89h-5.15v10.78h-2.11Z" transform="translate(-234.44 -751.91)"/><path class="cls-1" d="M287.14,794.49q-2.62,0-2.69-3.9v-8.93H294.6V774h2.11v20.51Zm-.58-5.12a1.17,1.17,0,0,0,1.35,1.22h6.69v-6.94h-8Z" transform="translate(-234.44 -751.91)"/><path class="cls-1" d="M302,794.49q-2.62,0-2.69-3.9v-8.93h9.57a2.31,2.31,0,0,1,2,1,5.24,5.24,0,0,1,.68,3v1.82H301.38v2a1.18,1.18,0,0,0,.35.92,1.5,1.5,0,0,0,1,.3h8.8v3.9Zm-.58-8.16h8v-1.79c0-.59-.28-.89-.83-.89h-7.2Z" transform="translate(-234.44 -751.91)"/><path class="cls-1" d="M314.08,785.6q0-3.95,2.69-3.94h2.72v3.94h-1.95c-.88,0-1.32.39-1.34,1.18v7.71h-2.12Z" transform="translate(-234.44 -751.91)"/><path class="cls-1" d="M328.45,777.92q0-3.95,2.69-3.94h2.72v3.94h-1.95c-.88,0-1.33.39-1.35,1.18v2.56h3.14l-1,2h-2.12v10.84h-2.11Z" transform="translate(-234.44 -751.91)"/><path class="cls-1" d="M339.11,794.49q-2.62,0-2.69-3.9v-8.93h2.11v7.71a1.17,1.17,0,0,0,1.35,1.22h6.17v-8.93h2.11v12.83Z" transform="translate(-234.44 -751.91)"/><path class="cls-1" d="M350.72,781.66h9.54v2h-7.43v5.72a1.18,1.18,0,0,0,1.35,1.22h6.08v3.9h-6.85c-1.75,0-2.64-1.3-2.69-3.9Z" transform="translate(-234.44 -751.91)"/><path class="cls-1" d="M362.82,794.49V774h2.62v13.38l5.12-5.7h1.67L367.52,787l5.63,7.45h-3.23l-4.48-6.2v6.2Z" transform="translate(-234.44 -751.91)"/><path class="cls-1" d="M388.77,794.49v-5.44l-4.06,4.61a2.2,2.2,0,0,1-1.7.83h-.9V781.66h1.83v8.8l4.83-5v-3.84h1.82v8.8l8.1-8.8h3.58l-10.91,12a2.18,2.18,0,0,1-1.69.83Z" transform="translate(-234.44 -751.91)"/><path class="cls-1" d="M403.55,783.65v-2h9.57q2.63,0,2.69,3.94v8.89h-9.57a2.3,2.3,0,0,1-2-1,5.09,5.09,0,0,1-.69-2.93v-3.84H413.7v-2.21c0-.59-.28-.89-.83-.89Zm10.15,6.94V787.9h-8v1.47a1.14,1.14,0,0,0,.35.92,1.46,1.46,0,0,0,1,.3Z" transform="translate(-234.44 -751.91)"/><path class="cls-1" d="M418.37,794.49V781.66h1.82v8.8l8.1-8.8h3.58l-10.91,12a2.18,2.18,0,0,1-1.69.83Z" transform="translate(-234.44 -751.91)"/><path class="cls-1" d="M435.84,794.49c-1.75,0-2.64-1.3-2.69-3.9v-8.93h9.57a2.29,2.29,0,0,1,2,1,5.15,5.15,0,0,1,.69,3v1.82H435.27v2a1.14,1.14,0,0,0,.35.92,1.46,1.46,0,0,0,1,.3h8.8v3.9Zm-.57-8.16h8v-1.79c0-.59-.28-.89-.83-.89h-7.2Z" transform="translate(-234.44 -751.91)"/><path class="cls-1" d="M251.35,820.49q-3,0-3-4.39v-10h10.77a2.54,2.54,0,0,1,2.3,1.1,6.14,6.14,0,0,1,.72,3.33v11.37c-.05,2.93-1.05,4.39-3,4.39h-6.23v-3.38h5.36c.84,0,1.35-.48,1.52-1.44v-.94Zm-.65-12.2v6.44a1.31,1.31,0,0,0,1.51,1.37h7.53v-6.8c0-.67-.32-1-.94-1Z" transform="translate(-234.44 -751.91)"/><path class="cls-1" d="M268.09,820.49q-3,0-3-4.39v-10h10.77a2.57,2.57,0,0,1,2.25,1.1,5.85,5.85,0,0,1,.77,3.33v2H267.44v2.19a1.27,1.27,0,0,0,.4,1,1.62,1.62,0,0,0,1.11.34h9.9v4.39Zm-.65-9.18h9v-2c0-.67-.32-1-.94-1h-8.1Z" transform="translate(-234.44 -751.91)"/><path class="cls-1" d="M281.73,806.06h9.61c2,0,3,1.47,3,4.43v10h-3.53V809.3c0-.67-.31-1-.94-1h-5.79v12.13h-2.38Z" transform="translate(-234.44 -751.91)"/><path class="cls-1" d="M300.27,820.49c-2,0-3-1.46-3-4.39v-10h11.41v-8.64H311v23.07Zm-.65-5.76a1.32,1.32,0,0,0,1.52,1.37h7.52v-7.81h-9Z" transform="translate(-234.44 -751.91)"/><path class="cls-1" d="M316.94,820.49q-3,0-3-4.39v-10h10.76a2.57,2.57,0,0,1,2.25,1.1,5.77,5.77,0,0,1,.77,3.33v2H316.29v2.19a1.27,1.27,0,0,0,.4,1,1.62,1.62,0,0,0,1.11.34h9.9v4.39Zm-.65-9.18h9v-2c0-.67-.31-1-.94-1h-8.1Z" transform="translate(-234.44 -751.91)"/><path class="cls-1" d="M330.58,810.49c0-3,1-4.43,3-4.43h3.06v4.43h-2.2c-1,0-1.49.44-1.51,1.33v8.67h-2.38Z" transform="translate(-234.44 -751.91)"/><path class="cls-1" d="M346.75,801.85c0-3,1-4.43,3-4.43h3.06v4.43h-2.19c-1,0-1.49.44-1.52,1.33v2.88h3.53l-1.15,2.23h-2.38v12.2h-2.37Z" transform="translate(-234.44 -751.91)"/><path class="cls-1" d="M358.73,820.49q-2.94,0-3-4.39v-10h2.38v8.67a1.31,1.31,0,0,0,1.51,1.37h6.95v-10h2.37v14.43Z" transform="translate(-234.44 -751.91)"/><path class="cls-1" d="M371.8,806.06h10.73v2.23h-8.35v6.44a1.31,1.31,0,0,0,1.51,1.37h6.84v4.39h-7.7q-3,0-3-4.39Z" transform="translate(-234.44 -751.91)"/><path class="cls-1" d="M385.41,820.49V797.42h2.95v15.05l5.76-6.41H396l-5.29,6.05,6.34,8.38H393.4l-5-7v7Z" transform="translate(-234.44 -751.91)"/><path class="cls-1" d="M414.61,820.49v-6.12L410,819.56a2.48,2.48,0,0,1-1.9.93h-1V806.06h2.05V816l5.44-5.58v-4.32h2.05V816l9.11-9.9h4l-12.28,13.5a2.5,2.5,0,0,1-1.91.93Z" transform="translate(-234.44 -751.91)"/><path class="cls-1" d="M431.24,808.29v-2.23H442c2,0,3,1.47,3,4.43v10H434.26A2.59,2.59,0,0,1,432,819.4a5.81,5.81,0,0,1-.77-3.3v-4.32h11.41V809.3c0-.67-.31-1-.94-1Zm11.41,7.81v-3h-9v1.65a1.3,1.3,0,0,0,.4,1,1.65,1.65,0,0,0,1.12.34Z" transform="translate(-234.44 -751.91)"/><path class="cls-1" d="M447.91,820.49V806.06h2V816l9.11-9.9h4l-12.28,13.5a2.5,2.5,0,0,1-1.91.93Z" transform="translate(-234.44 -751.91)"/><path class="cls-1" d="M467.56,820.49c-2,0-3-1.46-3-4.39v-10H475.3a2.55,2.55,0,0,1,2.25,1.1,5.76,5.76,0,0,1,.78,3.33v2H466.91v2.19a1.3,1.3,0,0,0,.4,1,1.65,1.65,0,0,0,1.12.34h9.9v4.39Zm-.65-9.18h9v-2c0-.67-.31-1-.94-1h-8.1Z" transform="translate(-234.44 -751.91)"/><path class="cls-1" d="M260.44,849.49c-2.18,0-3.3-1.62-3.36-4.88V833.45h12a2.83,2.83,0,0,1,2.56,1.22,6.8,6.8,0,0,1,.8,3.7V851c0,3.26-1.17,4.88-3.36,4.88h-6.92v-3.76h6c.94,0,1.5-.53,1.68-1.6v-1Zm-.72-13.56v7.16a1.47,1.47,0,0,0,1.68,1.52h8.36v-7.56c0-.74-.34-1.12-1-1.12Z" transform="translate(-234.44 -751.91)"/><path class="cls-1" d="M279,849.49c-2.18,0-3.3-1.62-3.36-4.88V833.45h12a2.86,2.86,0,0,1,2.5,1.22,6.42,6.42,0,0,1,.86,3.7v2.28H278.32v2.44a1.43,1.43,0,0,0,.44,1.14,1.82,1.82,0,0,0,1.24.38h11v4.88Zm-.72-10.2h10v-2.24c0-.74-.34-1.12-1-1.12h-9Z" transform="translate(-234.44 -751.91)"/><path class="cls-1" d="M294.2,833.45h10.68q3.28,0,3.36,4.92v11.12h-3.92V837.05c0-.74-.34-1.12-1-1.12h-6.44v13.48H294.2Z" transform="translate(-234.44 -751.91)"/><path class="cls-1" d="M314.8,849.49c-2.18,0-3.3-1.62-3.36-4.88V833.45h12.68v-9.6h2.64v25.64Zm-.72-6.4a1.47,1.47,0,0,0,1.68,1.52h8.36v-8.68h-10Z" transform="translate(-234.44 -751.91)"/><path class="cls-1" d="M333.32,849.49c-2.18,0-3.3-1.62-3.36-4.88V833.45h12a2.86,2.86,0,0,1,2.5,1.22,6.42,6.42,0,0,1,.86,3.7v2.28H332.6v2.44a1.43,1.43,0,0,0,.44,1.14,1.82,1.82,0,0,0,1.24.38h11v4.88Zm-.72-10.2h10v-2.24c0-.74-.34-1.12-1-1.12h-9Z" transform="translate(-234.44 -751.91)"/><path class="cls-1" d="M348.48,838.37q0-4.92,3.36-4.92h3.4v4.92H352.8c-1.09,0-1.65.5-1.68,1.48v9.64h-2.64Z" transform="translate(-234.44 -751.91)"/><path class="cls-1" d="M366.44,828.77q0-4.92,3.36-4.92h3.4v4.92h-2.44c-1.09,0-1.65.5-1.68,1.48v3.2H373l-1.28,2.48h-2.64v13.56h-2.64Z" transform="translate(-234.44 -751.91)"/><path class="cls-1" d="M379.76,849.49c-2.18,0-3.3-1.62-3.36-4.88V833.45H379v9.64a1.47,1.47,0,0,0,1.68,1.52h7.72V833.45h2.64v16Z" transform="translate(-234.44 -751.91)"/><path class="cls-1" d="M394.28,833.45H406.2v2.48h-9.28v7.16a1.47,1.47,0,0,0,1.68,1.52h7.6v4.88h-8.56c-2.18,0-3.3-1.62-3.36-4.88Z" transform="translate(-234.44 -751.91)"/><path class="cls-1" d="M409.4,849.49V823.85h3.28v16.72l6.4-7.12h2.08l-5.88,6.72,7,9.32h-4l-5.6-7.76v7.76Z" transform="translate(-234.44 -751.91)"/><path class="cls-1" d="M441.84,849.49v-6.8l-5.08,5.76a2.74,2.74,0,0,1-2.12,1h-1.12v-16h2.28v11l6-6.2v-4.8h2.28v11l10.12-11h4.48l-13.64,15a2.74,2.74,0,0,1-2.12,1Z" transform="translate(-234.44 -751.91)"/><path class="cls-1" d="M460.32,835.93v-2.48h12q3.29,0,3.36,4.92v11.12h-12a2.86,2.86,0,0,1-2.5-1.22,6.38,6.38,0,0,1-.86-3.66v-4.8H473v-2.76c0-.74-.34-1.12-1-1.12ZM473,844.61v-3.36H463v1.84a1.43,1.43,0,0,0,.44,1.14,1.82,1.82,0,0,0,1.24.38Z" transform="translate(-234.44 -751.91)"/><path class="cls-1" d="M478.84,849.49v-16h2.28v11l10.12-11h4.48l-13.64,15a2.74,2.74,0,0,1-2.12,1Z" transform="translate(-234.44 -751.91)"/><path class="cls-1" d="M500.68,849.49c-2.18,0-3.3-1.62-3.36-4.88V833.45h12a2.86,2.86,0,0,1,2.5,1.22,6.42,6.42,0,0,1,.86,3.7v2.28H500v2.44a1.43,1.43,0,0,0,.44,1.14,1.82,1.82,0,0,0,1.24.38h11v4.88Zm-.72-10.2h10v-2.24c0-.74-.34-1.12-1-1.12h-9Z" transform="translate(-234.44 -751.91)"/><path class="cls-2" d="M270.62,880.49c-2.35,0-3.56-1.74-3.62-5.24v-12h12.86a3.05,3.05,0,0,1,2.75,1.31,7.31,7.31,0,0,1,.86,4v13.59c-.05,3.5-1.26,5.24-3.61,5.24h-7.44v-4h6.41c1,0,1.6-.57,1.81-1.72v-1.12Zm-.78-14.57v7.69a1.58,1.58,0,0,0,1.81,1.64h9v-8.13c0-.8-.38-1.2-1.12-1.2Z" transform="translate(-234.44 -751.91)"/><path class="cls-2" d="M290.61,880.49c-2.35,0-3.55-1.74-3.61-5.24v-12h12.86a3.08,3.08,0,0,1,2.68,1.31,6.92,6.92,0,0,1,.93,4V871H289.84v2.62a1.51,1.51,0,0,0,.47,1.23,2,2,0,0,0,1.33.41h11.83v5.24Zm-.77-11h10.79v-2.41c0-.8-.37-1.2-1.12-1.2h-9.67Z" transform="translate(-234.44 -751.91)"/><path class="cls-2" d="M306.91,863.25h11.48q3.53,0,3.61,5.29v12h-4.21V867.12c0-.8-.38-1.2-1.12-1.2h-6.92v14.49h-2.84Z" transform="translate(-234.44 -751.91)"/><path class="cls-2" d="M329.05,880.49c-2.35,0-3.55-1.74-3.61-5.24v-12h13.63V852.93h2.84v27.56Zm-.77-6.88a1.58,1.58,0,0,0,1.8,1.64h9v-9.33H328.28Z" transform="translate(-234.44 -751.91)"/><path class="cls-2" d="M349,880.49c-2.35,0-3.55-1.74-3.61-5.24v-12h12.86a3.08,3.08,0,0,1,2.68,1.31,6.92,6.92,0,0,1,.93,4V871H348.19v2.62a1.51,1.51,0,0,0,.47,1.23,2,2,0,0,0,1.33.41h11.83v5.24Zm-.77-11H359v-2.41c0-.8-.37-1.2-1.12-1.2h-9.67Z" transform="translate(-234.44 -751.91)"/><path class="cls-2" d="M365.26,868.54q0-5.29,3.61-5.29h3.65v5.29H369.9c-1.17,0-1.78.53-1.8,1.59v10.36h-2.84Z" transform="translate(-234.44 -751.91)"/><path class="cls-2" d="M384.56,858.22q0-5.29,3.62-5.29h3.65v5.29h-2.62c-1.18,0-1.78.53-1.81,1.59v3.44h4.22l-1.38,2.67H387.4v14.57h-2.84Z" transform="translate(-234.44 -751.91)"/><path class="cls-2" d="M398.88,880.49c-2.35,0-3.55-1.74-3.61-5.24v-12h2.84v10.36a1.58,1.58,0,0,0,1.81,1.64h8.29v-12h2.84v17.24Z" transform="translate(-234.44 -751.91)"/><path class="cls-2" d="M414.49,863.25h12.82v2.67h-10v7.69a1.58,1.58,0,0,0,1.81,1.64h8.17v5.24H418.1c-2.35,0-3.55-1.74-3.61-5.24Z" transform="translate(-234.44 -751.91)"/><path class="cls-2" d="M430.75,880.49V852.93h3.52v18l6.88-7.66h2.24l-6.32,7.23,7.56,10h-4.34l-6-8.34v8.34Z" transform="translate(-234.44 -751.91)"/><path class="cls-2" d="M465.62,880.49v-7.31l-5.46,6.2a3,3,0,0,1-2.28,1.11h-1.21V863.25h2.46v11.83l6.49-6.67v-5.16h2.45v11.83L479,863.25h4.81L469.1,879.38a3,3,0,0,1-2.28,1.11Z" transform="translate(-234.44 -751.91)"/><path class="cls-2" d="M485.48,865.92v-2.67h12.86c2.35,0,3.56,1.76,3.61,5.29v12H489.1a3.07,3.07,0,0,1-2.69-1.31,6.78,6.78,0,0,1-.93-3.93v-5.16h13.64v-3c0-.8-.38-1.2-1.12-1.2Zm13.64,9.33v-3.61h-10.8v2a1.52,1.52,0,0,0,.48,1.23,2,2,0,0,0,1.33.41Z" transform="translate(-234.44 -751.91)"/><path class="cls-2" d="M505.39,880.49V863.25h2.45v11.83l10.88-11.83h4.82l-14.66,16.13a3,3,0,0,1-2.28,1.11Z" transform="translate(-234.44 -751.91)"/><path class="cls-2" d="M528.87,880.49c-2.35,0-3.55-1.74-3.61-5.24v-12h12.86a3.08,3.08,0,0,1,2.68,1.31,6.92,6.92,0,0,1,.93,4V871H528.1v2.62a1.51,1.51,0,0,0,.47,1.23,2,2,0,0,0,1.33.41h11.83v5.24Zm-.77-11h10.79v-2.41c0-.8-.37-1.2-1.12-1.2H528.1Z" transform="translate(-234.44 -751.91)"/></svg>